<svg version="1.1" id="Layer_1" xmlns="http://www.w3.org/2000/svg" xmlns:xlink="http://www.w3.org/1999/xlink" x="0px" y="0px"
	 width="100%" viewBox="0 0 110 92" enable-background="new 0 0 110 92" xml:space="preserve">
<path fill="none" opacity="1.000000" stroke="#000000" stroke-linecap="round" stroke-linejoin="round" stroke-width="4.000000"
	d="
M56.500000,75.000000 
	C59.616001,74.162788 61.258263,71.365059 63.413651,69.405045 
	C71.957039,61.636032 79.941750,53.245872 88.585083,45.596130 
	C93.699654,41.069496 94.785934,31.715736 92.017326,26.490818 
	C87.651688,18.251989 78.523735,15.246312 71.987961,16.953907 
	C67.517059,18.122013 63.346882,19.460825 60.430805,23.449411 
	C59.463436,24.772573 57.938496,25.955956 55.615314,26.065403 
	C53.375298,25.082977 52.020760,22.640844 49.995987,21.004965 
	C39.239773,12.314682 24.154158,16.989368 20.015066,28.005661 
	C17.453796,34.822548 19.222439,41.129860 24.094398,45.903660 
	C34.451920,56.052498 45.333332,65.666664 56.000000,75.500000 
"/>
</svg>