<svg version="1.1" id="Layer_1" xmlns="http://www.w3.org/2000/svg" xmlns:xlink="http://www.w3.org/1999/xlink" x="0px" y="0px"
	 width="100%" viewBox="0 0 102 96" enable-background="new 0 0 102 96" xml:space="preserve">
<path fill="none" opacity="1.000000" stroke="#000000" stroke-linecap="round" stroke-linejoin="round" stroke-width="4.000000"
	d="
M63.000000,49.000000 
	C65.960747,45.947330 69.382004,43.441082 71.585838,39.548599 
	C76.059105,31.647774 74.747017,21.030954 66.002388,13.497231 
	C59.016750,7.478926 47.624714,7.704938 40.436687,13.420374 
	C35.262955,17.534178 32.510616,22.679218 32.066994,29.004698 
	C31.576502,35.998531 35.269962,41.046913 39.858932,46.127419 
	C46.547413,53.532307 54.226387,51.088200 62.000000,50.000000 
"/>
<path fill="none" opacity="1.000000" stroke="#000000" stroke-linecap="round" stroke-linejoin="round" stroke-width="4.000000"
	d="
M44.000000,51.500000 
	C38.770115,55.418343 32.487728,57.835857 28.429186,63.448795 
	C24.472805,68.920441 22.347435,74.843056 22.000000,81.500000 
"/>
<path fill="none" opacity="1.000000" stroke="#000000" stroke-linecap="round" stroke-linejoin="round" stroke-width="4.000000"
	d="
M62.000000,51.500000 
	C64.718437,54.612659 68.929550,55.290924 72.083725,57.898731 
	C79.603699,64.116096 83.707886,71.773277 84.000000,81.500000 
"/>
</svg>