<svg version="1.1" id="Layer_1" xmlns="http://www.w3.org/2000/svg" xmlns:xlink="http://www.w3.org/1999/xlink" x="0px" y="0px"
	 width="100%" viewBox="0 0 448 416" enable-background="new 0 0 448 416" xml:space="preserve">
<path fill="#000000" opacity="1.000000" stroke="none" 
	d="
M449.000000,252.531342 
	C433.294678,257.295898 417.570892,261.525452 401.887512,265.899994 
	C352.899658,279.564026 303.907379,293.213196 254.972946,307.066406 
	C248.687073,308.845917 243.492050,307.992279 237.967972,304.621216 
	C220.074417,293.701630 219.979813,293.843781 214.682083,273.518616 
	C210.409439,257.126251 206.143753,240.732010 201.913422,224.328690 
	C199.993103,216.882599 200.022659,216.826523 207.353195,214.775803 
	C261.141876,199.728287 314.935852,184.699646 368.728546,169.666550 
	C388.097717,164.253571 407.468781,158.847458 426.836609,153.429794 
	C428.889160,152.855667 430.893127,152.039886 433.607269,152.259384 
	C438.629486,171.241501 443.669556,190.290939 448.854797,209.670197 
	C449.000000,224.020889 449.000000,238.041794 449.000000,252.531342 
z"/>
<path fill="#000000" opacity="1.000000" stroke="none" 
	d="
M170.468658,417.000000 
	C165.276505,412.841827 159.922104,409.485931 155.644928,404.729095 
	C125.853401,371.596985 142.458298,316.254913 185.418182,306.272736 
	C207.828445,301.065521 241.034668,312.000214 251.284912,346.437592 
	C259.086823,372.649475 250.151215,398.737793 227.643295,414.539276 
	C226.833710,415.107666 226.109177,415.797241 225.172501,416.715149 
	C206.979111,417.000000 188.958206,417.000000 170.468658,417.000000 
M210.476288,344.965271 
	C204.599625,340.875946 198.039536,340.272827 191.391541,341.981781 
	C179.299606,345.090179 172.582932,356.040131 174.467331,369.855316 
	C175.623093,378.328613 180.400574,384.758484 188.386887,387.996063 
	C196.401031,391.244995 204.395279,390.779327 211.458527,385.193817 
	C224.309830,375.031250 224.089615,356.848633 210.476288,344.965271 
z"/>
<path fill="#000000" opacity="1.000000" stroke="none" 
	d="
M449.000000,309.531342 
	C447.328430,309.049866 445.778107,309.865814 444.190430,310.309448 
	C387.820160,326.061768 331.446930,341.803741 275.082428,357.576752 
	C273.308960,358.073059 271.595459,358.672028 269.074768,358.142029 
	C267.048462,350.257019 264.858185,342.122650 262.903076,333.932159 
	C262.136749,330.721771 265.094757,330.630890 267.010864,330.086639 
	C283.648804,325.360687 300.308777,320.712128 316.968018,316.061340 
	C358.929108,304.346924 400.892120,292.639221 442.860321,280.950256 
	C444.610657,280.462738 446.421112,280.191223 448.601807,279.909546 
	C449.000000,289.687561 449.000000,299.375122 449.000000,309.531342 
z"/>
<path fill="#000000" opacity="1.000000" stroke="none" 
	d="
M231.845276,85.668182 
	C261.535309,77.383698 290.825165,69.177979 320.116882,60.978970 
	C326.824280,59.101505 326.789001,59.122002 328.577301,66.075005 
	C335.941437,94.707047 343.271576,123.348137 350.779114,151.942596 
	C351.823029,155.918625 351.369781,157.874527 346.960297,159.090866 
	C298.559753,172.441589 250.193893,185.919479 201.877457,199.571091 
	C197.116165,200.916382 195.605637,199.780121 194.449570,195.130112 
	C187.274323,166.269440 179.884872,137.460556 172.303192,108.703896 
	C171.083786,104.078796 172.025208,102.284218 176.687241,101.041245 
	C194.997513,96.159393 213.201996,90.880707 231.845276,85.668182 
z"/>
<path fill="#000000" opacity="1.000000" stroke="none" 
	d="
M124.327957,24.899704 
	C134.564148,64.871643 144.758224,104.434143 154.922180,144.004364 
	C165.538757,185.336777 176.125549,226.676819 186.727600,268.012970 
	C188.130569,273.482910 189.528229,278.954315 190.963562,284.415802 
	C191.816055,287.659576 191.223831,289.769440 187.450531,290.646942 
	C181.788605,291.963593 176.174515,293.558044 170.650589,295.371063 
	C166.881332,296.608154 165.395554,295.521790 164.437775,291.721497 
	C157.941971,265.947357 151.225204,240.228928 144.605621,214.485870 
	C131.200623,162.354828 117.812714,110.219406 104.415794,58.086296 
	C102.596825,51.007942 100.648567,43.960018 98.988625,36.844707 
	C98.085686,32.974300 96.077827,31.137892 92.019730,31.323092 
	C88.042702,31.504593 84.050713,31.343275 80.065445,31.363422 
	C76.072258,31.383610 72.386131,32.566242 69.645271,35.444954 
	C65.362114,39.943531 59.892532,41.085857 54.181496,41.194035 
	C43.868202,41.389378 33.547009,41.532291 23.251036,40.365791 
	C15.358651,39.471611 9.634402,32.528831 9.655567,23.432089 
	C9.676274,14.531549 15.626339,7.030603 23.554508,6.757878 
	C35.346210,6.352249 47.157539,5.402038 58.953495,6.708865 
	C60.414776,6.870755 62.046471,7.097513 63.235130,7.861013 
	C71.971092,13.472308 81.762970,13.741987 91.616531,13.645448 
	C98.600418,13.577024 105.574722,13.833174 112.571739,13.121839 
	C120.118111,12.354653 121.105225,13.599859 124.327957,24.899704 
z"/>
</svg>